<?xml version="1.0" encoding="utf-8"?>
<!-- Generator: Adobe Illustrator 16.0.0, SVG Export Plug-In . SVG Version: 6.00 Build 0)  -->
<!DOCTYPE svg PUBLIC "-//W3C//DTD SVG 1.1//EN" "http://www.w3.org/Graphics/SVG/1.1/DTD/svg11.dtd">
<svg version="1.1" id="Layer_1" xmlns="http://www.w3.org/2000/svg" xmlns:xlink="http://www.w3.org/1999/xlink" x="0px" y="0px"
	 width="1035px" height="190px" viewBox="0 0 1035 190" enable-background="new 0 0 1035 190" xml:space="preserve">
<g fill="#ffffff">
	<path d="M1.464,6.542h33.612v27.226h0.781C44.457,15.14,66.733,2.11,94.092,2.11c34.396,0,64.229,20.586,64.229,67.616V183.59
		h-33.612V78.975c0-33.221-19.021-45.596-40.257-45.596c-28.009,0-49.246,17.979-49.246,59.017v91.064H1.464V6.542z"/>
	<path d="M210.041,107.375c0,31.009,28.792,51.462,59.667,51.462c20.585,0,35.436-10.421,48.594-26.446l25.405,19.412
		c-18.629,24.23-44.425,36.217-78.428,36.217c-56.019,0-91.065-40.255-91.065-93.02c0-53.023,38.433-93.02,91.458-93.02
		c62.271,0.13,86.244,47.944,86.244,93.409v11.985H210.041z M315.959,80.539c-0.783-29.443-17.196-51.459-51.2-51.459
		c-33.222,0-54.848,28.01-54.848,51.459H315.959z"/>
	<path d="M416.272,89.137L353.61,6.542h43.252l42.993,62.664l42.208-62.664h40.647l-60.449,82.467l71.653,94.451h-43.252
		l-52.243-74.258l-52.243,74.258H344.75L416.272,89.137z"/>
	<path d="M542.775,6.542h31.396V34.16h0.781c3.387-10.424,25.015-32.05,56.801-32.05c26.188,0,44.037,11.205,55.24,32.831
		C698.46,13.315,721.648,2.11,742.885,2.11c54.454,0,67.223,38.823,67.223,78.429V183.59h-33.61V84.969
		c0-26.837-5.603-51.459-38.044-51.459c-32.438,0-45.206,22.015-45.206,53.282v96.668h-33.612V90.963
		c0-33.614-4.82-57.453-37.39-57.453c-24.231,0-45.859,18.239-45.859,58.234v91.846h-33.61V6.542z"/>
	<g>
		<circle fill="#009AC7" cx="927.751" cy="93.047" r="21.627"/>
		<g>
			<path d="M1019.076,84.057c-5.473-45.987-44.688-81.555-92.108-81.555c-38.432,0-71.523,23.45-85.592,56.801l28.922,11.336
				c9.509-21.888,31.266-37.129,56.67-37.129c30.226,0,55.37,21.756,60.709,50.547H975.82l28.794,28.271l28.922-28.398h-14.46
				V84.057z"/>
			<path d="M983.509,120.143c-9.512,21.76-31.266,36.871-56.541,36.871c-29.703,0-54.457-20.976-60.32-48.985h13.028l-28.791-28.4
				l-28.923,28.4h13.159c6.255,45.207,44.946,79.991,91.847,79.991c38.432,0,71.392-23.32,85.463-56.541L983.509,120.143z"/>
		</g>
	</g>
</g>
</svg>
