<svg id="Layer_1" data-name="Layer 1" xmlns="http://www.w3.org/2000/svg" viewBox="0 0 428.58 143.38"><defs><style>.cls-1{fill:#f4f4f2;}</style></defs><title>NF_</title><path class="cls-1" d="M98.06,48.68H86.17a1.72,1.72,0,0,0-1.71,1.71V65L75.12,52.69a10.15,10.15,0,0,0-8.09-4H57.8a5.54,5.54,0,0,0-5.54,5.54V90.61a5.54,5.54,0,0,0,5.54,5.54H69.72a1.71,1.71,0,0,0,1.71-1.71V79.72l9.29,12.36a10.16,10.16,0,0,0,8.13,4.07h9.21a5.54,5.54,0,0,0,5.54-5.54V54.22A5.54,5.54,0,0,0,98.06,48.68Zm-29.88,44H57.76a2.19,2.19,0,0,1-2.19-2.19V59L68.18,75.59Zm30.07,0H88.81A6.81,6.81,0,0,1,83.4,90l-27-35.3a1.64,1.64,0,0,1,1.3-2.64h9.41a6.83,6.83,0,0,1,5.41,2.67l27.08,35.3A1.65,1.65,0,0,1,98.25,92.71Zm2.07-7L87.71,69.17V52.09H98.13a2.19,2.19,0,0,1,2.19,2.19Z"/><path class="cls-1" d="M167.06,92.08h-7.58L140.63,70.51V92.08h-9.77V52.75h7.46l19,22.15V52.75h9.77Z"/><path class="cls-1" d="M197.56,80.63l-.05.17h-19.9a6.06,6.06,0,0,0,6.3,4.51,4.83,4.83,0,0,0,4.28-2h9.25c-1.33,5.78-6.7,9.42-13.64,9.42-9.2,0-15.33-6.13-15.33-14.69s6-14.63,14.92-14.63c8.16,0,14.34,5.61,14.34,14A20,20,0,0,1,197.56,80.63Zm-20.07-5.32h11.45a5.19,5.19,0,0,0-5.55-4.69A5.73,5.73,0,0,0,177.49,75.31Z"/><path class="cls-1" d="M229.72,92.08h-9.36V90.51a14,14,0,0,1-7.7,2.14c-7.57,0-13.93-6.3-13.93-14.63s6.36-14.63,13.93-14.63a14,14,0,0,1,7.7,2.14V64h9.36Zm-9.36-9.72V73.69A7.26,7.26,0,0,0,214.51,71a7,7,0,0,0,0,13.93A7.22,7.22,0,0,0,220.36,82.36Z"/><path class="cls-1" d="M250.92,72.47c-4.57.18-7.46,1.39-9.66,3.59v16h-9.37V64h9.37v3a14.05,14.05,0,0,1,9.66-3.47Z"/><path class="cls-1" d="M281.56,61.37V52.75H252.24V92.08H262V78.2h14.66V78a17,17,0,0,1,2.1-8.34H262V61.37Z"/><path class="cls-1" d="M328.78,72.47c-4.57.18-7.46,1.39-9.65,3.59v16h-9.37V64h9.37v3a14,14,0,0,1,9.65-3.47Z"/><path class="cls-1" d="M376.9,76.06v16h-9.43V77.56c0-4-1.91-5.9-5-5.9A5.47,5.47,0,0,0,358.16,74c.06.69.12,1.38.12,2.08v16h-9.37V77.56c0-4-2-5.9-5-5.9-1.45,0-2.84.7-4.22,2.49V92.08h-9.37V64h9.37v1.68a9.86,9.86,0,0,1,7-2.55,11,11,0,0,1,8.62,3.76,13.7,13.7,0,0,1,10-3.76C371.92,63.16,376.9,68.08,376.9,76.06Z"/><path class="cls-1" d="M308.6,78c0,8.56-6.36,14.92-15.2,14.92S278.19,86.58,278.19,78s6.36-14.63,15.21-14.63S308.6,69.58,308.6,78Zm-8.84.06a6.34,6.34,0,1,0-12.67,0c0,3.76,2.55,6.77,6.36,6.77S299.76,81.84,299.76,78.08Z"/></svg>